<svg width="17" height="17" viewBox="0 0 17 17" fill="none" xmlns="http://www.w3.org/2000/svg">
  <path fill-rule="evenodd" clip-rule="evenodd" d="M0 2.35714C0 1.73199 0.248341 1.13244 0.690391 0.690391C1.13244 0.248341 1.73199 0 2.35714 0H3.43514C4.11086 0 4.70014 0.460429 4.86436 1.11571L5.73257 4.59093C5.80293 4.87221 5.78872 5.168 5.69172 5.44125C5.59472 5.71449 5.41925 5.95304 5.18729 6.127L4.17136 6.88914C4.06529 6.9685 4.0425 7.08479 4.07236 7.16571C4.5158 8.37167 5.21604 9.46684 6.1246 10.3754C7.03316 11.284 8.12833 11.9842 9.33429 12.4276C9.41521 12.4575 9.53071 12.4347 9.61086 12.3286L10.373 11.3127C10.547 11.0808 10.7855 10.9053 11.0588 10.8083C11.332 10.7113 11.6278 10.6971 11.9091 10.7674L15.3843 11.6356C16.0396 11.7999 16.5 12.3891 16.5 13.0656V14.1429C16.5 14.768 16.2517 15.3676 15.8096 15.8096C15.3676 16.2517 14.768 16.5 14.1429 16.5H12.375C5.54086 16.5 0 10.9591 0 4.125V2.35714Z" fill="white" />
</svg>