<svg width="18" height="22" viewBox="0 0 18 22" fill="none" xmlns="http://www.w3.org/2000/svg">
  <path fill-rule="evenodd" clip-rule="evenodd" d="M15.3389 0C14.7866 0 14.3389 0.447716 14.3389 1V21.0001C14.3389 21.5524 14.7866 22.0001 15.3389 22.0001H16.6569C17.2091 22.0001 17.6569 21.5524 17.6569 21.0001V1C17.6569 0.447715 17.2091 0 16.6569 0H15.3389ZM7.49426 5.03653C7.49426 4.48425 7.94197 4.03653 8.49426 4.03653H9.81219C10.3645 4.03653 10.8122 4.48425 10.8122 5.03653V21.0001C10.8122 21.5524 10.3645 22.0001 9.81219 22.0001H8.49426C7.94197 22.0001 7.49426 21.5524 7.49426 21.0001V5.03653ZM0 11.3934C0 10.8411 0.447715 10.3934 1 10.3934H2.31794C2.87022 10.3934 3.31794 10.8411 3.31794 11.3934V20.9994C3.31794 21.5517 2.87022 21.9994 2.31794 21.9994H1C0.447715 21.9994 0 21.5517 0 20.9994V11.3934Z" fill="#3E4D31" />
</svg>