<svg width="22" height="20" viewBox="0 0 22 20" fill="none" xmlns="http://www.w3.org/2000/svg">
  <path d="M10.5995 19.9006L10.5916 19.8973L10.5668 19.8839C10.4216 19.8052 10.2775 19.7245 10.1347 19.6417C8.41733 18.6367 6.81241 17.456 5.34656 16.1194C2.75056 13.7338 0 10.1937 0 5.83356C0 2.58014 2.7799 7.88367e-05 6.13518 7.88367e-05C7.06793 -0.00442064 7.9897 0.19824 8.83195 0.592989C9.6742 0.987737 10.4153 1.56442 11 2.28014C11.5849 1.56427 12.3261 0.987502 13.1686 0.592747C14.011 0.197992 14.933 -0.00458795 15.8659 7.88367e-05C19.2201 7.88367e-05 22 2.58014 22 5.83356C22 10.1948 19.2494 13.7349 16.6534 16.1183C15.1876 17.4549 13.5827 18.6356 11.8653 19.6406C11.7225 19.7237 11.5784 19.8049 11.4332 19.8839L11.4084 19.8973L11.4005 19.9017L11.3971 19.9028C11.2748 19.9666 11.1384 20 11 20C10.8616 20 10.7252 19.9666 10.6029 19.9028L10.5995 19.9006Z" fill="#3E4D31" />
</svg>