<svg width="10" height="13" viewBox="0 0 10 13" fill="none" xmlns="http://www.w3.org/2000/svg">
  <path fill-rule="evenodd" clip-rule="evenodd" d="M5 1.1875C3.95571 1.1875 2.95419 1.60234 2.21577 2.34077C1.47734 3.07919 1.0625 4.08071 1.0625 5.125C1.0625 7.04761 2.07206 8.5843 3.12549 9.66287C3.64944 10.1993 4.17464 10.6122 4.56884 10.8906C4.74266 11.0134 4.89025 11.1096 5 11.1782C5.10975 11.1096 5.25734 11.0134 5.43116 10.8906C5.82536 10.6122 6.35056 10.1993 6.87451 9.66287C7.92794 8.5843 8.9375 7.04761 8.9375 5.125C8.9375 4.08071 8.52266 3.07919 7.78423 2.34077C7.04581 1.60234 6.04429 1.1875 5 1.1875ZM5 11.6875C4.78983 12.0712 4.78967 12.0711 4.7895 12.071L4.78908 12.0708L4.78793 12.0702L4.78444 12.0682L4.77279 12.0617C4.76298 12.0562 4.74913 12.0483 4.73151 12.0381C4.69628 12.0177 4.64593 11.9879 4.58262 11.9489C4.45606 11.871 4.27739 11.7561 4.06397 11.6053C3.63786 11.3043 3.06931 10.8576 2.49951 10.2743C1.36544 9.11311 0.1875 7.36856 0.1875 5.125C0.1875 3.84865 0.69453 2.62457 1.59705 1.72205C2.49957 0.81953 3.72365 0.3125 5 0.3125C6.27635 0.3125 7.50043 0.81953 8.40295 1.72205C9.30547 2.62457 9.8125 3.84865 9.8125 5.125C9.8125 7.36856 8.63456 9.11311 7.50049 10.2743C6.93069 10.8576 6.36214 11.3043 5.93603 11.6053C5.72261 11.7561 5.54394 11.871 5.41738 11.9489C5.35407 11.9879 5.30372 12.0177 5.26849 12.0381C5.25087 12.0483 5.23702 12.0562 5.22721 12.0617L5.21556 12.0682L5.21207 12.0702L5.21092 12.0708L5.2105 12.071C5.21033 12.0711 5.21017 12.0712 5 11.6875ZM5 11.6875L5.21017 12.0712C5.07923 12.1429 4.92077 12.1429 4.78983 12.0712L5 11.6875Z" fill="white" fill-opacity="0.6" />
</svg>