<svg width="23" height="23" viewBox="0 0 23 23" fill="none" xmlns="http://www.w3.org/2000/svg">
  <path d="M0 10.553V12.3994C0.069233 14.2181 2.67632 14.2167 2.74488 12.3994V10.553C2.67569 8.73432 0.0685591 8.73571 0 10.553ZM1.84633 10.553V12.3994C1.82243 13.0273 0.922223 13.0269 0.898547 12.3994V10.553C0.898547 10.2917 1.11114 10.0791 1.37244 10.0791C1.63374 10.0791 1.84633 10.2917 1.84633 10.553ZM20.938 9.18058C20.6898 9.18058 20.4887 9.38172 20.4887 9.62985V13.3226C20.4887 13.5707 20.6898 13.7718 20.938 13.7718H22.5535C23.149 13.7497 23.1485 12.8952 22.5535 12.8733H21.3873V9.62985C21.3873 9.38172 21.1861 9.18058 20.938 9.18058ZM15.4112 9.62985V11.4194L14.416 9.42894C14.3707 9.3384 14.2962 9.26579 14.2045 9.22288C14.1129 9.17998 14.0094 9.16928 13.9109 9.19254C13.8124 9.21579 13.7246 9.27163 13.6618 9.351C13.599 9.43038 13.5648 9.52864 13.5648 9.62985V13.3226C13.5869 13.918 14.4415 13.9176 14.4634 13.3226V11.533L15.4586 13.5235C15.5514 13.7109 15.765 13.8078 15.9637 13.7598C16.0622 13.7366 16.1499 13.6807 16.2128 13.6014C16.2756 13.522 16.3097 13.4238 16.3097 13.3226V9.62985C16.2876 9.03439 15.4331 9.03484 15.4112 9.62985ZM6.2068 10.553C6.2068 9.79622 5.59112 9.18054 4.83436 9.18054H3.91119C3.66306 9.18054 3.46192 9.38167 3.46192 9.62981V13.3226C3.48403 13.918 4.33859 13.9176 4.36047 13.3226V11.9254H4.55666L5.3557 13.5235C5.46707 13.7477 5.74126 13.8344 5.95849 13.7244C6.18043 13.6134 6.27037 13.3435 6.1594 13.1216L5.48042 11.7636C5.91235 11.5322 6.2068 11.0763 6.2068 10.553ZM4.36047 10.0791H4.83436C5.45979 10.1026 5.46307 10.998 4.83863 11.0268C4.8345 11.0268 4.83036 11.0268 4.82627 11.0269H4.36047V10.0791ZM19.3224 13.7718C19.5705 13.7718 19.7717 13.5707 19.7717 13.3226V10.553C19.7024 8.73432 17.0953 8.73571 17.0267 10.553V13.3226C17.0488 13.918 17.9034 13.9176 17.9253 13.3226V12.387H18.8731V13.3226C18.8731 13.5707 19.0743 13.7718 19.3224 13.7718ZM17.9253 11.4885V10.553C17.9492 9.92503 18.8494 9.92548 18.8731 10.553V11.4885H17.9253ZM6.87182 9.62985V13.3226C6.89392 13.918 7.74848 13.9176 7.77036 13.3226V9.62985C7.74826 9.03439 6.8937 9.03484 6.87182 9.62985ZM9.8598 10.0791C10.0382 10.0791 10.2001 10.179 10.2824 10.3398C10.3954 10.5607 10.6661 10.6481 10.887 10.5351C11.1079 10.4221 11.1953 10.1513 11.0823 9.93046C10.4225 8.6548 8.49819 9.11907 8.4874 10.553V12.3994C8.55664 14.2181 11.1637 14.2167 11.2323 12.3994V11.7178C11.2323 11.4696 11.0311 11.2685 10.783 11.2685H10.3215C9.726 11.2906 9.72645 12.1452 10.3215 12.167H10.3337V12.3994C10.3098 13.0274 9.40963 13.0269 9.38595 12.3994V10.553C9.3859 10.2917 9.5985 10.0791 9.8598 10.0791ZM11.9493 9.62985V13.3226C11.9714 13.918 12.8259 13.9176 12.8478 13.3226V9.62985C12.8257 9.03439 11.9712 9.03484 11.9493 9.62985ZM0.449228 8.10664H22.5536C23.149 8.08453 23.1486 7.22997 22.5536 7.20809H22.1841C18.2817 -2.40524 4.71764 -2.40016 0.818666 7.20809H0.449228C-0.146238 7.2302 -0.145789 8.08476 0.449228 8.10664ZM4.57922 7.20809C7.62026 2.09159 15.3836 2.09298 18.4236 7.20809H4.57922ZM11.5014 0.873292C15.7023 0.873292 19.5295 3.3952 21.2096 7.20809H19.4596C18.6977 5.78735 17.5693 4.59651 16.1917 3.75924C13.3758 2.01503 9.62703 2.01503 6.81116 3.75924C5.43349 4.59648 4.30513 5.78733 3.54328 7.20809H1.79323C3.47333 3.3952 7.30051 0.873292 11.5014 0.873292ZM22.5536 14.8457H0.449228C-0.146238 14.8678 -0.145789 15.7224 0.449228 15.7442H0.818666C4.72105 25.3576 18.2852 25.3525 22.1841 15.7442H22.5536C23.149 15.7222 23.1486 14.8676 22.5536 14.8457ZM18.4236 15.7442C15.3825 20.8607 7.61918 20.8594 4.57917 15.7442H18.4236ZM11.5014 22.079C7.30047 22.079 3.47329 19.5571 1.79323 15.7442H3.54324C6.93669 22.0724 16.0681 22.0697 19.4595 15.7442H21.2095C19.5295 19.5572 15.7023 22.079 11.5014 22.079Z" fill="white" />
</svg>