<svg width="18" height="19" viewBox="0 0 18 19" fill="none" xmlns="http://www.w3.org/2000/svg">
  <path d="M15.2173 8.79951H12.3512C12.0076 8.79951 11.7227 8.51458 11.7227 8.17098V2.31301C11.7227 1.69286 11.9657 1.1146 12.4015 0.678819C12.8373 0.243034 13.4155 0 14.0357 0H14.0441C15.0916 0.00838049 16.0805 0.419024 16.8348 1.16489C17.589 1.92751 17.9996 2.93317 17.9996 3.98073V6.00881C18.008 7.67653 16.885 8.79951 15.2173 8.79951ZM12.9797 7.54244H15.2173C16.1895 7.54244 16.7509 6.98095 16.7509 6.00881V3.98073C16.7509 3.26001 16.466 2.57281 15.9548 2.05322C15.4436 1.55039 14.7564 1.26545 14.0441 1.25707H14.0357C13.7591 1.25707 13.4909 1.36602 13.2898 1.56715C13.0887 1.76828 12.9797 2.02808 12.9797 2.31301V7.54244Z" fill="white" />
  <path d="M6.4865 18.5041C6.09261 18.5041 5.72387 18.3533 5.44732 18.0683L4.05616 16.6688C4.02038 16.6321 3.97224 16.6101 3.92111 16.607C3.86999 16.6039 3.81954 16.62 3.7796 16.652L2.34654 17.7247C1.90237 18.0599 1.31574 18.1186 0.812907 17.8672C0.310078 17.6158 0 17.113 0 16.5515V3.98073C0 1.44982 1.44982 0 3.98073 0H14.0373C14.3809 0 14.6659 0.284937 14.6659 0.628537C14.6659 0.972137 14.3809 1.25707 14.0373 1.25707C13.4591 1.25707 12.9898 1.72638 12.9898 2.30463V16.5515C12.9898 17.113 12.6797 17.6158 12.1768 17.8672C11.674 18.1186 11.0874 18.0683 10.6432 17.7331L9.21016 16.6604C9.17104 16.6302 9.12226 16.6152 9.07291 16.6183C9.02357 16.6214 8.97703 16.6423 8.94198 16.6772L7.53406 18.0851C7.24912 18.3533 6.88038 18.5041 6.4865 18.5041ZM3.89693 15.3531C4.28243 15.3531 4.65955 15.4955 4.94449 15.7888L6.33565 17.1884C6.38593 17.2387 6.45298 17.247 6.4865 17.247C6.47812 17.2303 6.58706 17.2387 6.63735 17.1884L8.04527 15.7805C8.56486 15.2609 9.38615 15.2106 9.9644 15.6548L11.3891 16.7191C11.4813 16.7861 11.5651 16.761 11.607 16.7358C11.6489 16.7107 11.7243 16.6604 11.7243 16.5515V2.30463C11.7243 1.92751 11.8165 1.56715 11.9757 1.25707H3.97235C2.11188 1.25707 1.24869 2.12026 1.24869 3.98073V16.5515C1.24869 16.6688 1.32412 16.7191 1.36602 16.7442C1.4163 16.7694 1.50011 16.7861 1.58391 16.7191L3.01698 15.6464C3.27677 15.4536 3.58685 15.3531 3.89693 15.3531Z" fill="white" />
  <path d="M8.79249 7.9602H4.18322C3.83962 7.9602 3.55469 7.67526 3.55469 7.33166C3.55469 6.98806 3.83962 6.70312 4.18322 6.70312H8.79249C9.13609 6.70312 9.42103 6.98806 9.42103 7.33166C9.42103 7.67526 9.13609 7.9602 8.79249 7.9602Z" fill="white" />
</svg>