<svg width="25" height="17" viewBox="0 0 25 17" fill="none" xmlns="http://www.w3.org/2000/svg">
  <path d="M24.7268 7.85829L23.2127 6.45376C23.1094 6.35803 23.0303 6.23927 22.9816 6.10716L21.7925 2.87823C21.6224 2.42318 21.3177 2.03075 20.919 1.75326C20.5202 1.47578 20.0464 1.3264 19.5606 1.32505H17.7589V0.819615C17.7589 0.602251 17.6726 0.39379 17.5189 0.24009C17.3652 0.0863909 17.1567 4.32094e-05 16.9394 4.32094e-05H6.05112C5.88911 -0.00186485 5.73275 0.0594856 5.61526 0.171054C5.49778 0.282622 5.42844 0.435611 5.42198 0.597502C5.42047 0.678427 5.4351 0.758841 5.46502 0.834046C5.49495 0.909251 5.53956 0.977737 5.59625 1.0355C5.65295 1.09327 5.72058 1.13916 5.79522 1.17048C5.86985 1.20181 5.94997 1.21795 6.03091 1.21795H16.541V6.50213C16.541 6.7195 16.6273 6.92796 16.781 7.08166C16.9347 7.23536 17.1432 7.32171 17.3606 7.32171H22.3101L23.7801 8.64462V13.5795H22.4474C22.3147 12.9988 21.9888 12.4803 21.523 12.109C21.0573 11.7376 20.4792 11.5354 19.8836 11.5354C19.2879 11.5354 18.7099 11.7376 18.2441 12.109C17.7783 12.4803 17.4524 12.9988 17.3197 13.5795H13.2188C13.0861 12.9988 12.7602 12.4803 12.2944 12.109C11.8287 11.7376 11.2506 11.5354 10.655 11.5354C10.0593 11.5354 9.48125 11.7376 9.01548 12.109C8.54971 12.4803 8.2238 12.9988 8.09109 13.5795H6.05107C5.88904 13.5776 5.73266 13.6389 5.61518 13.7505C5.4977 13.8621 5.42839 14.0152 5.42198 14.1771C5.42047 14.258 5.4351 14.3384 5.46503 14.4136C5.49495 14.4888 5.53956 14.5573 5.59626 14.6151C5.65295 14.6728 5.72059 14.7187 5.79522 14.75C5.86985 14.7814 5.94997 14.7975 6.03091 14.7975H8.10134C8.2424 15.3681 8.57051 15.875 9.03333 16.2374C9.49615 16.5997 10.067 16.7966 10.6548 16.7966C11.2426 16.7966 11.8134 16.5997 12.2762 16.2374C12.7391 15.875 13.0672 15.3681 13.2082 14.7975H17.33C17.4711 15.3681 17.7992 15.875 18.262 16.2374C18.7249 16.5997 19.2957 16.7966 19.8835 16.7966C20.4713 16.7966 21.0421 16.5997 21.5049 16.2374C21.9678 15.875 22.2959 15.3681 22.4369 14.7975H24.1785C24.3959 14.7975 24.6043 14.7111 24.758 14.5575C24.9117 14.4038 24.9981 14.1953 24.9981 13.978V8.46742C24.998 8.35256 24.9738 8.239 24.9271 8.13407C24.8804 8.02915 24.8122 7.9352 24.7268 7.85829ZM17.7589 6.10394V2.54292H19.5606C19.7978 2.54356 20.0292 2.61649 20.2238 2.75198C20.4185 2.88747 20.5673 3.07908 20.6503 3.30127L21.6884 6.10394H17.7589ZM10.6548 15.5785C10.3754 15.5785 10.1023 15.4956 9.87001 15.3404C9.63771 15.1852 9.45666 14.9646 9.34974 14.7065C9.24283 14.4483 9.21486 14.1643 9.26937 13.8903C9.32388 13.6163 9.45842 13.3646 9.65597 13.167C9.85353 12.9695 10.1052 12.8349 10.3793 12.7804C10.6533 12.7259 10.9373 12.7539 11.1954 12.8609C11.4535 12.9678 11.6741 13.1488 11.8294 13.3811C11.9846 13.6134 12.0674 13.8866 12.0674 14.1659C12.067 14.5405 11.918 14.8995 11.6532 15.1643C11.3884 15.4291 11.0293 15.5781 10.6548 15.5785ZM19.8835 15.5785C19.6041 15.5785 19.331 15.4957 19.0987 15.3404C18.8664 15.1852 18.6853 14.9646 18.5784 14.7065C18.4715 14.4484 18.4435 14.1643 18.498 13.8903C18.5525 13.6163 18.6871 13.3646 18.8846 13.167C19.0822 12.9695 19.3339 12.835 19.6079 12.7805C19.8819 12.7259 20.1659 12.7539 20.4241 12.8608C20.6822 12.9678 20.9028 13.1488 21.058 13.3811C21.2132 13.6134 21.2961 13.8866 21.2961 14.1659C21.2956 14.5404 21.1467 14.8995 20.8819 15.1643C20.617 15.4291 20.258 15.5781 19.8835 15.5785Z" fill="white" />
  <path d="M3.4315 4.62431H10.3377C10.4992 4.62431 10.6541 4.56014 10.7683 4.44593C10.8826 4.33171 10.9467 4.1768 10.9467 4.01528C10.9467 3.85375 10.8826 3.69884 10.7683 3.58463C10.6541 3.47041 10.4992 3.40625 10.3377 3.40625H3.4315C3.26998 3.40625 3.11507 3.47041 3.00086 3.58463C2.88664 3.69884 2.82248 3.85375 2.82248 4.01528C2.82248 4.1768 2.88664 4.33171 3.00086 4.44593C3.11507 4.56014 3.26998 4.62431 3.4315 4.62431ZM10.9467 7.39827C10.9467 7.23675 10.8826 7.08184 10.7683 6.96763C10.6541 6.85341 10.4992 6.78924 10.3377 6.78924H0.61448C0.534046 6.78852 0.454266 6.80375 0.379746 6.83403C0.305227 6.86431 0.237444 6.90905 0.180312 6.96568C0.12318 7.0223 0.0778309 7.08968 0.0468826 7.16392C0.0159342 7.23817 0 7.31781 0 7.39825C0 7.47869 0.0159342 7.55833 0.0468826 7.63257C0.0778309 7.70682 0.12318 7.7742 0.180312 7.83082C0.237444 7.88744 0.305227 7.93219 0.379746 7.96247C0.454266 7.99275 0.534046 8.00797 0.61448 8.00725H10.3377C10.4992 8.00725 10.6541 7.94309 10.7683 7.82889C10.8825 7.71469 10.9467 7.55979 10.9467 7.39827ZM7.0905 10.7813C7.0905 10.7013 7.07475 10.6221 7.04415 10.5482C7.01354 10.4743 6.96869 10.4072 6.91214 10.3507C6.85559 10.2941 6.78846 10.2492 6.71457 10.2186C6.64069 10.188 6.5615 10.1723 6.48152 10.1723H2.24864C2.08807 10.1737 1.93456 10.2385 1.82152 10.3526C1.70849 10.4666 1.64507 10.6207 1.64507 10.7813C1.64507 10.9419 1.70849 11.096 1.82152 11.21C1.93456 11.3241 2.08807 11.3889 2.24864 11.3903H6.48152C6.64304 11.3903 6.79794 11.3261 6.91214 11.2119C7.02635 11.0977 7.0905 10.9428 7.0905 10.7813Z" fill="white" />
</svg>