<svg width="37" height="37" viewBox="0 0 37 37" fill="none" xmlns="http://www.w3.org/2000/svg">
  <g opacity="0.8" clip-path="url(#clip0_29_3632)">
    <path d="M31.5815 5.41848C28.0873 1.92438 23.4415 0 18.5 0C13.5585 0 8.91273 1.92438 5.41848 5.41848C1.92438 8.91273 0 13.5585 0 18.5C0 23.4415 1.92438 28.0873 5.41848 31.5815C8.91273 35.0756 13.5585 37 18.5 37C23.4415 37 28.0873 35.0756 31.5815 31.5815C35.0756 28.0873 37 23.4415 37 18.5C37 13.5585 35.0756 8.91273 31.5815 5.41848ZM18.5 34.7113C9.56103 34.7113 2.28866 27.439 2.28866 18.5C2.28866 9.56103 9.56103 2.28866 18.5 2.28866C27.439 2.28866 34.7113 9.56103 34.7113 18.5C34.7113 27.439 27.439 34.7113 18.5 34.7113Z" fill="white" />
    <path d="M24.2989 17.6598C25.7712 17.6598 26.969 16.462 26.969 14.9897C26.969 13.5174 25.7712 12.3196 24.2989 12.3196C22.8266 12.3196 21.6288 13.5174 21.6288 14.9897C21.6288 16.462 22.8266 17.6598 24.2989 17.6598ZM12.7009 17.6598C14.1732 17.6598 15.371 16.462 15.371 14.9897C15.371 13.5174 14.1732 12.3196 12.7009 12.3196C11.2286 12.3196 10.0308 13.5174 10.0308 14.9897C10.0308 16.462 11.2287 17.6598 12.7009 17.6598ZM18.4999 27.0825C14.9211 27.0825 11.6835 24.8229 10.4435 21.4598L8.29614 22.2515C9.86624 26.51 13.9668 29.3712 18.4999 29.3712C23.033 29.3712 27.1336 26.51 28.7037 22.2515L26.5563 21.4598C25.3163 24.8229 22.0787 27.0825 18.4999 27.0825Z" fill="white" />
  </g>
  <defs>
    <clipPath id="clip0_29_3632">
      <rect width="37" height="37" fill="white" />
    </clipPath>
  </defs>
</svg>