<svg width="15" height="15" viewBox="0 0 15 15" fill="none" xmlns="http://www.w3.org/2000/svg">
  <path d="M12.1563 2.50683C10.964 1.30263 9.38061 0.564135 7.69177 0.42455C6.00293 0.284966 4.3198 0.753479 2.94597 1.74558C1.57214 2.73769 0.598063 4.18807 0.199429 5.83511C-0.199204 7.48216 0.00385333 9.21744 0.771973 10.728L0.0179676 14.3886C0.010144 14.425 0.00992236 14.4627 0.0173168 14.4992C0.0247113 14.5357 0.0395624 14.5703 0.0609417 14.6009C0.0922609 14.6472 0.136967 14.6828 0.18909 14.7031C0.241213 14.7233 0.298272 14.7272 0.352647 14.7142L3.94036 13.8638C5.44663 14.6125 7.16966 14.8025 8.80287 14.4C10.4361 13.9975 11.8735 13.0286 12.8594 11.6658C13.8454 10.303 14.3158 8.63453 14.187 6.9574C14.0583 5.28026 13.3387 3.7032 12.1563 2.50683ZM11.0376 11.4351C10.2127 12.2577 9.15041 12.8007 8.00048 12.9876C6.85055 13.1746 5.67096 12.9959 4.62795 12.4769L4.12788 12.2295L1.92837 12.7504L1.93489 12.723L2.39068 10.5092L2.14585 10.026C1.61292 8.97938 1.42492 7.79091 1.60878 6.63086C1.79265 5.47081 2.33895 4.39872 3.16942 3.56816C4.21293 2.52498 5.62803 1.93896 7.10353 1.93896C8.57904 1.93896 9.99414 2.52498 11.0376 3.56816C11.0465 3.57835 11.0561 3.58793 11.0663 3.59681C12.0969 4.64268 12.6722 6.05356 12.6668 7.52185C12.6614 8.99014 12.0758 10.3968 11.0376 11.4351Z" fill="#29A71A" />
  <path d="M10.8427 9.81058C10.5731 10.2351 10.1473 10.7547 9.61204 10.8836C8.67441 11.1102 7.23542 10.8914 5.44482 9.22196L5.42268 9.20243C3.84826 7.7426 3.43935 6.5276 3.53832 5.56393C3.59302 5.01698 4.04881 4.52212 4.43297 4.19917C4.49371 4.14733 4.56573 4.11042 4.64328 4.0914C4.72083 4.07237 4.80175 4.07176 4.87958 4.0896C4.95741 4.10745 5.02999 4.14325 5.0915 4.19416C5.15302 4.24507 5.20177 4.30967 5.23386 4.38278L5.81336 5.68504C5.85102 5.76948 5.86497 5.86257 5.85373 5.95434C5.84249 6.04611 5.80648 6.13309 5.74955 6.20594L5.45654 6.5862C5.39367 6.66471 5.35573 6.76025 5.34761 6.8605C5.33949 6.96076 5.36155 7.06116 5.41096 7.14877C5.57505 7.43657 5.96833 7.8598 6.40458 8.25178C6.89423 8.69455 7.43727 9.09955 7.78107 9.23759C7.87306 9.27517 7.9742 9.28434 8.07145 9.26391C8.1687 9.24349 8.25761 9.19441 8.32671 9.12299L8.6666 8.7805C8.73218 8.71583 8.81374 8.6697 8.90296 8.64682C8.99218 8.62395 9.08587 8.62514 9.17448 8.65027L10.551 9.04095C10.6269 9.06424 10.6965 9.10458 10.7544 9.1589C10.8124 9.21322 10.8571 9.28006 10.8853 9.35433C10.9134 9.42859 10.9242 9.50831 10.9168 9.58739C10.9095 9.66647 10.8841 9.74281 10.8427 9.81058Z" fill="#29A71A" />
</svg>